<mxfile host="app.diagrams.net" agent="Mozilla/5.0 (Macintosh; Intel Mac OS X 10_15_7) AppleWebKit/537.36 (KHTML, like Gecko) Chrome/128.0.0.0 Safari/537.36" version="25.0.3">
  <diagram name="第 1 页" id="6XTrNinVOmstTceVo0tN">
    <mxGraphModel dx="1417" dy="1819" grid="1" gridSize="10" guides="1" tooltips="1" connect="1" arrows="1" fold="1" page="1" pageScale="1" pageWidth="827" pageHeight="1169" math="0" shadow="0">
      <root>
        <mxCell id="0" />
        <mxCell id="1" parent="0" />
        <mxCell id="VGmLlZrA64LQWpxoeh4O-22" value="" style="rounded=0;whiteSpace=wrap;html=1;fillColor=none;dashed=1;dashPattern=12 12;" vertex="1" parent="1">
          <mxGeometry x="40" y="280" width="400" height="190" as="geometry" />
        </mxCell>
        <mxCell id="VGmLlZrA64LQWpxoeh4O-8" value="" style="rounded=0;whiteSpace=wrap;html=1;fillColor=none;dashed=1;dashPattern=12 12;" vertex="1" parent="1">
          <mxGeometry x="40" y="40" width="400" height="190" as="geometry" />
        </mxCell>
        <mxCell id="VGmLlZrA64LQWpxoeh4O-11" style="edgeStyle=orthogonalEdgeStyle;rounded=0;orthogonalLoop=1;jettySize=auto;html=1;exitX=1;exitY=0.25;exitDx=0;exitDy=0;entryX=0;entryY=0.75;entryDx=0;entryDy=0;" edge="1" parent="1" source="VGmLlZrA64LQWpxoeh4O-1" target="VGmLlZrA64LQWpxoeh4O-2">
          <mxGeometry relative="1" as="geometry" />
        </mxCell>
        <mxCell id="VGmLlZrA64LQWpxoeh4O-12" value="2. read" style="edgeLabel;html=1;align=center;verticalAlign=middle;resizable=0;points=[];" vertex="1" connectable="0" parent="VGmLlZrA64LQWpxoeh4O-11">
          <mxGeometry x="0.0143" y="1" relative="1" as="geometry">
            <mxPoint as="offset" />
          </mxGeometry>
        </mxCell>
        <mxCell id="VGmLlZrA64LQWpxoeh4O-13" style="edgeStyle=orthogonalEdgeStyle;rounded=0;orthogonalLoop=1;jettySize=auto;html=1;exitX=1;exitY=0.5;exitDx=0;exitDy=0;entryX=0;entryY=0.5;entryDx=0;entryDy=0;" edge="1" parent="1" source="VGmLlZrA64LQWpxoeh4O-1" target="VGmLlZrA64LQWpxoeh4O-3">
          <mxGeometry relative="1" as="geometry" />
        </mxCell>
        <mxCell id="VGmLlZrA64LQWpxoeh4O-14" value="3. generate" style="edgeLabel;html=1;align=center;verticalAlign=middle;resizable=0;points=[];" vertex="1" connectable="0" parent="VGmLlZrA64LQWpxoeh4O-13">
          <mxGeometry x="-0.125" y="-1" relative="1" as="geometry">
            <mxPoint as="offset" />
          </mxGeometry>
        </mxCell>
        <mxCell id="VGmLlZrA64LQWpxoeh4O-1" value="mannual task" style="rounded=1;whiteSpace=wrap;html=1;fillColor=#f8cecc;strokeColor=#b85450;" vertex="1" parent="1">
          <mxGeometry x="80" y="160" width="120" height="40" as="geometry" />
        </mxCell>
        <mxCell id="VGmLlZrA64LQWpxoeh4O-2" value="robots.txt rule" style="rounded=1;whiteSpace=wrap;html=1;fillColor=#f8cecc;strokeColor=#b85450;" vertex="1" parent="1">
          <mxGeometry x="280" y="80" width="120" height="40" as="geometry" />
        </mxCell>
        <mxCell id="VGmLlZrA64LQWpxoeh4O-3" value="oss file" style="rounded=1;whiteSpace=wrap;html=1;fillColor=#d5e8d4;strokeColor=#82b366;" vertex="1" parent="1">
          <mxGeometry x="280" y="160" width="120" height="40" as="geometry" />
        </mxCell>
        <mxCell id="VGmLlZrA64LQWpxoeh4O-9" style="edgeStyle=orthogonalEdgeStyle;rounded=0;orthogonalLoop=1;jettySize=auto;html=1;exitX=1;exitY=0.5;exitDx=0;exitDy=0;entryX=0;entryY=0.5;entryDx=0;entryDy=0;" edge="1" parent="1" source="VGmLlZrA64LQWpxoeh4O-4" target="VGmLlZrA64LQWpxoeh4O-2">
          <mxGeometry relative="1" as="geometry" />
        </mxCell>
        <mxCell id="VGmLlZrA64LQWpxoeh4O-10" value="1. edit" style="edgeLabel;html=1;align=center;verticalAlign=middle;resizable=0;points=[];" vertex="1" connectable="0" parent="VGmLlZrA64LQWpxoeh4O-9">
          <mxGeometry x="-0.125" y="4" relative="1" as="geometry">
            <mxPoint x="5" y="4" as="offset" />
          </mxGeometry>
        </mxCell>
        <mxCell id="VGmLlZrA64LQWpxoeh4O-4" value="user" style="rounded=1;whiteSpace=wrap;html=1;fillColor=#f8cecc;strokeColor=#b85450;sketch=1;curveFitting=1;jiggle=2;" vertex="1" parent="1">
          <mxGeometry x="80" y="80" width="120" height="40" as="geometry" />
        </mxCell>
        <mxCell id="VGmLlZrA64LQWpxoeh4O-15" style="edgeStyle=orthogonalEdgeStyle;rounded=0;orthogonalLoop=1;jettySize=auto;html=1;exitX=1;exitY=0.5;exitDx=0;exitDy=0;entryX=0;entryY=0.5;entryDx=0;entryDy=0;" edge="1" parent="1" source="VGmLlZrA64LQWpxoeh4O-5" target="VGmLlZrA64LQWpxoeh4O-6">
          <mxGeometry relative="1" as="geometry" />
        </mxCell>
        <mxCell id="VGmLlZrA64LQWpxoeh4O-16" value="4. visit" style="edgeLabel;html=1;align=center;verticalAlign=middle;resizable=0;points=[];" vertex="1" connectable="0" parent="VGmLlZrA64LQWpxoeh4O-15">
          <mxGeometry x="0.125" relative="1" as="geometry">
            <mxPoint as="offset" />
          </mxGeometry>
        </mxCell>
        <mxCell id="VGmLlZrA64LQWpxoeh4O-5" value="browser" style="rounded=1;whiteSpace=wrap;html=1;fillColor=#d5e8d4;strokeColor=#82b366;" vertex="1" parent="1">
          <mxGeometry x="80" y="320" width="120" height="40" as="geometry" />
        </mxCell>
        <mxCell id="VGmLlZrA64LQWpxoeh4O-17" style="edgeStyle=orthogonalEdgeStyle;rounded=0;orthogonalLoop=1;jettySize=auto;html=1;exitX=0.5;exitY=1;exitDx=0;exitDy=0;entryX=0.5;entryY=0;entryDx=0;entryDy=0;" edge="1" parent="1" source="VGmLlZrA64LQWpxoeh4O-6" target="VGmLlZrA64LQWpxoeh4O-7">
          <mxGeometry relative="1" as="geometry" />
        </mxCell>
        <mxCell id="VGmLlZrA64LQWpxoeh4O-18" value="5. route" style="edgeLabel;html=1;align=center;verticalAlign=middle;resizable=0;points=[];" vertex="1" connectable="0" parent="VGmLlZrA64LQWpxoeh4O-17">
          <mxGeometry x="0.05" y="-2" relative="1" as="geometry">
            <mxPoint as="offset" />
          </mxGeometry>
        </mxCell>
        <mxCell id="VGmLlZrA64LQWpxoeh4O-6" value="nginx" style="rounded=1;whiteSpace=wrap;html=1;fillColor=#f8cecc;strokeColor=#b85450;" vertex="1" parent="1">
          <mxGeometry x="280" y="320" width="120" height="40" as="geometry" />
        </mxCell>
        <mxCell id="VGmLlZrA64LQWpxoeh4O-20" style="edgeStyle=orthogonalEdgeStyle;rounded=0;orthogonalLoop=1;jettySize=auto;html=1;exitX=1;exitY=0.5;exitDx=0;exitDy=0;entryX=1;entryY=0.5;entryDx=0;entryDy=0;" edge="1" parent="1" source="VGmLlZrA64LQWpxoeh4O-7" target="VGmLlZrA64LQWpxoeh4O-3">
          <mxGeometry relative="1" as="geometry" />
        </mxCell>
        <mxCell id="VGmLlZrA64LQWpxoeh4O-21" value="6. fetch" style="edgeLabel;html=1;align=center;verticalAlign=middle;resizable=0;points=[];" vertex="1" connectable="0" parent="VGmLlZrA64LQWpxoeh4O-20">
          <mxGeometry x="0.1833" y="2" relative="1" as="geometry">
            <mxPoint as="offset" />
          </mxGeometry>
        </mxCell>
        <mxCell id="VGmLlZrA64LQWpxoeh4O-7" value="seo controller" style="rounded=1;whiteSpace=wrap;html=1;fillColor=#f8cecc;strokeColor=#b85450;" vertex="1" parent="1">
          <mxGeometry x="280" y="400" width="120" height="40" as="geometry" />
        </mxCell>
        <mxCell id="VGmLlZrA64LQWpxoeh4O-23" value="v-seo" style="text;html=1;align=center;verticalAlign=middle;whiteSpace=wrap;rounded=0;" vertex="1" parent="1">
          <mxGeometry x="210" y="40" width="60" height="30" as="geometry" />
        </mxCell>
        <mxCell id="VGmLlZrA64LQWpxoeh4O-24" value="seo-landingpage" style="text;html=1;align=center;verticalAlign=middle;whiteSpace=wrap;rounded=0;" vertex="1" parent="1">
          <mxGeometry x="190" y="280" width="100" height="30" as="geometry" />
        </mxCell>
        <mxCell id="VGmLlZrA64LQWpxoeh4O-25" value="Doing" style="rounded=1;whiteSpace=wrap;html=1;fillColor=#fff2cc;strokeColor=#d6b656;" vertex="1" parent="1">
          <mxGeometry x="240" y="-90" width="120" height="40" as="geometry" />
        </mxCell>
        <mxCell id="VGmLlZrA64LQWpxoeh4O-26" value="To Do" style="rounded=1;whiteSpace=wrap;html=1;fillColor=#f8cecc;strokeColor=#b85450;" vertex="1" parent="1">
          <mxGeometry x="40" y="-90" width="120" height="40" as="geometry" />
        </mxCell>
        <mxCell id="VGmLlZrA64LQWpxoeh4O-27" value="Done" style="rounded=1;whiteSpace=wrap;html=1;fillColor=#d5e8d4;strokeColor=#82b366;" vertex="1" parent="1">
          <mxGeometry x="440" y="-90" width="120" height="40" as="geometry" />
        </mxCell>
        <mxCell id="VGmLlZrA64LQWpxoeh4O-28" value="Planing" style="rounded=1;whiteSpace=wrap;html=1;align=center;fillColor=#f8cecc;strokeColor=#b85450;sketch=1;curveFitting=1;jiggle=2;" vertex="1" parent="1">
          <mxGeometry x="640" y="-90" width="120" height="40" as="geometry" />
        </mxCell>
        <mxCell id="VGmLlZrA64LQWpxoeh4O-29" value="" style="rounded=0;whiteSpace=wrap;html=1;fillColor=none;dashed=1;dashPattern=12 12;" vertex="1" parent="1">
          <mxGeometry x="560" y="40" width="400" height="190" as="geometry" />
        </mxCell>
        <mxCell id="VGmLlZrA64LQWpxoeh4O-30" value="" style="curved=1;endArrow=classic;html=1;rounded=0;exitX=0.5;exitY=1;exitDx=0;exitDy=0;entryX=0.25;entryY=1;entryDx=0;entryDy=0;" edge="1" parent="1" source="VGmLlZrA64LQWpxoeh4O-1" target="VGmLlZrA64LQWpxoeh4O-29">
          <mxGeometry width="50" height="50" relative="1" as="geometry">
            <mxPoint x="390" y="220" as="sourcePoint" />
            <mxPoint x="440" y="170" as="targetPoint" />
            <Array as="points">
              <mxPoint x="280" y="250" />
              <mxPoint x="610" y="270" />
            </Array>
          </mxGeometry>
        </mxCell>
      </root>
    </mxGraphModel>
  </diagram>
</mxfile>
